<?xml version="1.0" encoding="UTF-8" standalone="no"?>
<!-- Generator: Adobe Illustrator 16.0.0, SVG Export Plug-In . SVG Version: 6.00 Build 0)  -->

<svg
   xmlns:dc="http://purl.org/dc/elements/1.1/"
   xmlns:cc="http://creativecommons.org/ns#"
   xmlns:rdf="http://www.w3.org/1999/02/22-rdf-syntax-ns#"
   xmlns:svg="http://www.w3.org/2000/svg"
   xmlns="http://www.w3.org/2000/svg"
   xmlns:sodipodi="http://sodipodi.sourceforge.net/DTD/sodipodi-0.dtd"
   xmlns:inkscape="http://www.inkscape.org/namespaces/inkscape"
   version="1.1"
   id="Capa_1"
   x="0px"
   y="0px"
   width="232"
   height="200"
   viewBox="0 0 232 199.99999"
   xml:space="preserve"
   sodipodi:docname="hammer.svg"
   inkscape:version="0.92.2 (unknown)"><metadata
     id="metadata5407"><rdf:RDF><cc:Work
         rdf:about=""><dc:format>image/svg+xml</dc:format><dc:type
           rdf:resource="http://purl.org/dc/dcmitype/StillImage" /><dc:title></dc:title></cc:Work></rdf:RDF></metadata><defs
     id="defs5405" /><sodipodi:namedview
     pagecolor="#ffffff"
     bordercolor="#666666"
     borderopacity="1"
     objecttolerance="10"
     gridtolerance="10"
     guidetolerance="10"
     inkscape:pageopacity="0"
     inkscape:pageshadow="2"
     inkscape:window-width="1855"
     inkscape:window-height="1056"
     id="namedview5403"
     showgrid="false"
     fit-margin-top="0"
     fit-margin-left="0"
     fit-margin-right="0"
     fit-margin-bottom="0"
     inkscape:zoom="2.3587466"
     inkscape:cx="56.065294"
     inkscape:cy="125.48972"
     inkscape:window-x="65"
     inkscape:window-y="24"
     inkscape:window-maximized="1"
     inkscape:current-layer="g5370" /><g
     id="g5370"
     transform="translate(-2.976776e-4,-270.485)"><path
       d="m 137.59837,367.34695 -2.08684,-3.53956 c -9.0981,7.76767 -24.77154,18.57074 -43.231781,29.45547 -6.672857,3.93766 -13.162093,7.55641 -19.257275,10.77625 1.074498,4.36299 -2.843256,5.48665 -6.909286,7.88507 L 19.35161,439.50445 c -4.966657,2.92694 -9.246775,4.87201 -12.1761524,-0.0934 l -4.9491899,-8.39246 c -2.92815896,-4.96788 0.8429426,-7.77011 5.8096007,-10.70232 L 54.799884,392.73881 c 4.070092,-2.39843 6.949096,-5.27783 10.243275,-2.22821 5.768977,-3.77476 12.075406,-7.6982 18.748265,-11.63383 18.460226,-10.88675 35.500266,-19.37467 46.701446,-23.5768 l -2.0909,-3.54198 c -1.75779,-2.97975 -0.76617,-6.81951 2.21359,-8.57933 2.97974,-1.75779 6.8195,-0.76616 8.57933,2.21399 l 9.19192,15.58612 c 1.75739,2.97974 0.7682,6.82153 -2.21155,8.57932 -2.97935,1.75779 -6.8191,0.7686 -8.57689,-2.21114 z m -18.35665,-37.62896 c 2.9436,4.98697 8.77635,7.15099 14.11147,5.72185 l 22.5084,38.16925 c -3.83002,3.97869 -4.76151,10.13075 -1.81995,15.12015 l 0.85472,1.44783 c 3.53467,5.99851 11.26862,7.9911 17.26712,4.45927 l 25.34881,-14.94994 c 5.99606,-3.5371 7.99353,-11.26862 4.45439,-17.26671 l -0.85472,-1.4458 c -2.94116,-4.9894 -8.77636,-7.15547 -14.11147,-5.72673 l -22.51124,-38.16925 c 3.83448,-3.97869 4.76435,-10.13075 1.81995,-15.12015 l -0.85229,-1.44783 c -3.53955,-5.9981 -11.26862,-7.99354 -17.26955,-4.45927 l -25.34678,14.94994 c -5.9985,3.5367 -7.99475,11.26862 -4.45927,17.26671 z m 101.44235,93.25422 h -4.84804 c -2.26193,-4.04612 -6.5843,-6.78578 -11.5473,-6.78578 h -38.20297 c -4.96584,0 -9.28496,2.73966 -11.5473,6.78578 h -2.76119 c -5.76491,0 -10.4403,4.67498 -10.4403,10.4403 v 2.78273 c 0,5.76776 4.67539,10.4403 10.4403,10.4403 h 68.90639 c 5.76491,0 10.4403,-4.67254 10.4403,-10.4403 v -2.78273 c 4.1e-4,-5.76532 -4.67497,-10.4403 -10.43989,-10.4403 z"
       id="path5368"
       style="fill:#fbd800;fill-opacity:1;stroke-width:0.40623736"
       inkscape:connector-curvature="0" /></g><g
     id="g5372"
     transform="translate(-2.976776e-4,-270.485)" /><g
     id="g5374"
     transform="translate(-2.976776e-4,-270.485)" /><g
     id="g5376"
     transform="translate(-2.976776e-4,-270.485)" /><g
     id="g5378"
     transform="translate(-2.976776e-4,-270.485)" /><g
     id="g5380"
     transform="translate(-2.976776e-4,-270.485)" /><g
     id="g5382"
     transform="translate(-2.976776e-4,-270.485)" /><g
     id="g5384"
     transform="translate(-2.976776e-4,-270.485)" /><g
     id="g5386"
     transform="translate(-2.976776e-4,-270.485)" /><g
     id="g5388"
     transform="translate(-2.976776e-4,-270.485)" /><g
     id="g5390"
     transform="translate(-2.976776e-4,-270.485)" /><g
     id="g5392"
     transform="translate(-2.976776e-4,-270.485)" /><g
     id="g5394"
     transform="translate(-2.976776e-4,-270.485)" /><g
     id="g5396"
     transform="translate(-2.976776e-4,-270.485)" /><g
     id="g5398"
     transform="translate(-2.976776e-4,-270.485)" /><g
     id="g5400"
     transform="translate(-2.976776e-4,-270.485)" /></svg>