<?xml version="1.0" encoding="utf-8"?>
<svg id="master-artboard" viewBox="0 0 600 362.0437927246094" version="1.1" xmlns="http://www.w3.org/2000/svg" x="0px" y="0px" style="enable-background:new 0 0 1400 980;" width="80px" height="50px"><defs><style id="ee-google-fonts">@import url(https://fonts.googleapis.com/css?family=Rubik:300,300italic,400,400italic,500,500italic,700,700italic,900,900italic);</style></defs>
<g transform="matrix(0.27936145663261414, 0, 0, 0.27936145663261414, -51.073455810546875, -131.5328369140625)"><g transform="matrix(1.0000000000000002, 0, 0, 1.0000000000000002, 15.15240478515625, -477.11703491210943)">
            <path d="M1434.55,1664.54C1397.42,1957.81 1146.76,2184.89 843.489,2184.89C514.652,2184.89 247.678,1917.91 247.678,1589.07C247.678,1260.24 514.652,993.264 843.489,993.264C1146.76,993.264 1397.42,1220.34 1434.55,1513.61L1171.58,1513.61C1137.29,1364.12 1003.32,1252.48 843.489,1252.48C657.716,1252.48 506.891,1403.3 506.891,1589.07C506.891,1774.85 657.716,1925.67 843.489,1925.67C1003.32,1925.67 1137.29,1814.03 1171.58,1664.54L1434.55,1664.54Z" style="fill:rgb(250,216,6);"/>
        </g><g transform="matrix(1.0000000000000002, 0, 0, 1.0000000000000002, 15.15240478515625, -477.11703491210943)">
            <path d="M1087.74,1357.56C1178.16,1143.58 1390.08,993.264 1636.83,993.264C1965.66,993.264 2232.64,1260.24 2232.64,1589.07C2232.64,1917.91 1965.66,2184.89 1636.83,2184.89C1390.08,2184.89 1178.16,2034.57 1087.74,1820.59C1128.4,1777.7 1157.91,1724.12 1171.58,1664.54L1308.74,1664.54C1343.03,1814.03 1476.99,1925.67 1636.83,1925.67C1822.6,1925.67 1973.42,1774.85 1973.42,1589.07C1973.42,1403.3 1822.6,1252.48 1636.83,1252.48C1476.99,1252.48 1343.03,1364.12 1308.74,1513.61L1171.58,1513.61C1157.91,1454.03 1128.4,1400.45 1087.74,1357.56Z" style="fill:rgb(250,216,6);"/>
        </g><g transform="matrix(0.518805,0,0,0.518805,648.605,2275.35)">
        
        
    </g></g></svg>
