<?xml version="1.0" encoding="UTF-8" standalone="no"?>
<!-- Generator: Adobe Illustrator 16.0.0, SVG Export Plug-In . SVG Version: 6.00 Build 0)  -->

<svg
   xmlns:dc="http://purl.org/dc/elements/1.1/"
   xmlns:cc="http://creativecommons.org/ns#"
   xmlns:rdf="http://www.w3.org/1999/02/22-rdf-syntax-ns#"
   xmlns:svg="http://www.w3.org/2000/svg"
   xmlns="http://www.w3.org/2000/svg"
   xmlns:sodipodi="http://sodipodi.sourceforge.net/DTD/sodipodi-0.dtd"
   xmlns:inkscape="http://www.inkscape.org/namespaces/inkscape"
   version="1.1"
   id="Capa_1"
   x="0px"
   y="0px"
   width="200"
   height="200"
   viewBox="0 0 200 200"
   xml:space="preserve"
   sodipodi:docname="sun.svg"
   inkscape:version="0.92.2 (unknown)"><metadata
     id="metadata6057"><rdf:RDF><cc:Work
         rdf:about=""><dc:format>image/svg+xml</dc:format><dc:type
           rdf:resource="http://purl.org/dc/dcmitype/StillImage" /><dc:title></dc:title></cc:Work></rdf:RDF></metadata><defs
     id="defs6055" /><sodipodi:namedview
     pagecolor="#ffffff"
     bordercolor="#666666"
     borderopacity="1"
     objecttolerance="10"
     gridtolerance="10"
     guidetolerance="10"
     inkscape:pageopacity="0"
     inkscape:pageshadow="2"
     inkscape:window-width="1855"
     inkscape:window-height="1056"
     id="namedview6053"
     showgrid="false"
     fit-margin-top="0"
     fit-margin-left="0"
     fit-margin-right="0"
     fit-margin-bottom="0"
     inkscape:zoom="0.38562092"
     inkscape:cx="127.0678"
     inkscape:cy="306"
     inkscape:window-x="65"
     inkscape:window-y="24"
     inkscape:window-maximized="1"
     inkscape:current-layer="Capa_1" /><g
     id="g6020"
     style="fill:#fbd800;fill-opacity:1"
     transform="scale(0.32679739)"><g
       id="Sun"
       style="fill:#fbd800;fill-opacity:1"><g
         id="g6017"
         style="fill:#fbd800;fill-opacity:1"><path
           d="m 104.914,306 c 0,-14.478 -11.75,-26.229 -26.229,-26.229 H 26.229 C 11.75,279.771 0,291.522 0,306 c 0,14.479 11.75,26.229 26.229,26.229 h 52.457 c 14.478,0 26.228,-11.75 26.228,-26.229 z m 26.229,148.629 c -7.239,0 -13.796,2.938 -18.553,7.676 l -34.971,34.972 c -4.739,4.756 -7.676,11.313 -7.676,18.552 0,14.479 11.733,26.229 26.229,26.229 7.239,0 13.796,-2.938 18.535,-7.693 l 34.972,-34.972 c 4.756,-4.738 7.694,-11.295 7.694,-18.534 -10e-4,-14.48 -11.734,-26.23 -26.23,-26.23 z M 306,104.914 c 14.496,0 26.229,-11.75 26.229,-26.229 V 26.229 C 332.229,11.75 320.496,0 306,0 291.504,0 279.771,11.75 279.771,26.229 v 52.457 c 0,14.478 11.733,26.228 26.229,26.228 z m 174.857,52.458 c 7.239,0 13.796,-2.938 18.534,-7.676 l 34.972,-34.972 c 4.756,-4.756 7.693,-11.313 7.693,-18.552 0,-14.478 -11.732,-26.229 -26.229,-26.229 -7.238,0 -13.796,2.938 -18.552,7.694 l -34.972,34.971 c -4.738,4.739 -7.676,11.296 -7.676,18.535 0.002,14.478 11.734,26.229 26.23,26.229 z M 112.59,149.695 c 4.756,4.738 11.313,7.676 18.553,7.676 14.478,0 26.229,-11.75 26.229,-26.229 0,-7.239 -2.938,-13.796 -7.676,-18.552 L 114.724,77.619 c -4.756,-4.739 -11.313,-7.676 -18.552,-7.676 -14.478,0 -26.229,11.75 -26.229,26.229 0,7.239 2.938,13.796 7.676,18.535 z m 473.181,130.076 h -52.457 c -14.479,0 -26.229,11.75 -26.229,26.229 0,14.479 11.75,26.229 26.229,26.229 h 52.457 C 600.25,332.229 612,320.479 612,306 c 0,-14.478 -11.75,-26.229 -26.229,-26.229 z m -86.362,182.534 c -4.756,-4.738 -11.312,-7.676 -18.552,-7.676 -14.479,0 -26.229,11.75 -26.229,26.229 0,7.239 2.938,13.796 7.676,18.534 l 34.972,34.972 c 4.756,4.756 11.313,7.693 18.552,7.693 14.479,0 26.229,-11.75 26.229,-26.229 0,-7.238 -2.938,-13.796 -7.676,-18.552 z M 306,507.086 c -14.496,0 -26.229,11.75 -26.229,26.229 v 52.457 c 0,14.478 11.733,26.228 26.229,26.228 14.496,0 26.229,-11.75 26.229,-26.229 v -52.457 c 0,-14.478 -11.733,-26.228 -26.229,-26.228 z M 306,122.4 c -101.242,0 -183.6,82.358 -183.6,183.6 0,101.242 82.358,183.6 183.6,183.6 101.242,0 183.6,-82.358 183.6,-183.6 0,-101.242 -82.358,-183.6 -183.6,-183.6 z m 0,314.743 c -72.321,0 -131.143,-58.821 -131.143,-131.143 0,-72.321 58.822,-131.143 131.143,-131.143 72.321,0 131.143,58.822 131.143,131.143 0,72.321 -58.822,131.143 -131.143,131.143 z"
           id="path6015"
           style="fill:#fbd800;fill-opacity:1"
           inkscape:connector-curvature="0" /></g></g></g><g
     id="g6022"
     transform="translate(0,-412)" /><g
     id="g6024"
     transform="translate(0,-412)" /><g
     id="g6026"
     transform="translate(0,-412)" /><g
     id="g6028"
     transform="translate(0,-412)" /><g
     id="g6030"
     transform="translate(0,-412)" /><g
     id="g6032"
     transform="translate(0,-412)" /><g
     id="g6034"
     transform="translate(0,-412)" /><g
     id="g6036"
     transform="translate(0,-412)" /><g
     id="g6038"
     transform="translate(0,-412)" /><g
     id="g6040"
     transform="translate(0,-412)" /><g
     id="g6042"
     transform="translate(0,-412)" /><g
     id="g6044"
     transform="translate(0,-412)" /><g
     id="g6046"
     transform="translate(0,-412)" /><g
     id="g6048"
     transform="translate(0,-412)" /><g
     id="g6050"
     transform="translate(0,-412)" /></svg>