<?xml version="1.0" encoding="UTF-8" standalone="no"?>
<svg
   xmlns:dc="http://purl.org/dc/elements/1.1/"
   xmlns:cc="http://creativecommons.org/ns#"
   xmlns:rdf="http://www.w3.org/1999/02/22-rdf-syntax-ns#"
   xmlns:svg="http://www.w3.org/2000/svg"
   xmlns="http://www.w3.org/2000/svg"
   xmlns:sodipodi="http://sodipodi.sourceforge.net/DTD/sodipodi-0.dtd"
   xmlns:inkscape="http://www.inkscape.org/namespaces/inkscape"
   enable-background="new 0 0 40 40"
   id="Слой_1"
   version="1.1"
   viewBox="0 0 175 200"
   xml:space="preserve"
   sodipodi:docname="web.svg"
   width="175"
   height="200"
   inkscape:version="0.92.2 (unknown)"><metadata
     id="metadata1036"><rdf:RDF><cc:Work
         rdf:about=""><dc:format>image/svg+xml</dc:format><dc:type
           rdf:resource="http://purl.org/dc/dcmitype/StillImage" /><dc:title></dc:title></cc:Work></rdf:RDF></metadata><defs
     id="defs1034" /><sodipodi:namedview
     pagecolor="#ffffff"
     bordercolor="#666666"
     borderopacity="1"
     objecttolerance="10"
     gridtolerance="10"
     guidetolerance="10"
     inkscape:pageopacity="0"
     inkscape:pageshadow="2"
     inkscape:window-width="1855"
     inkscape:window-height="1056"
     id="namedview1032"
     showgrid="false"
     showguides="false"
     fit-margin-top="0"
     fit-margin-left="0"
     fit-margin-right="0"
     fit-margin-bottom="0"
     inkscape:zoom="2.95"
     inkscape:cx="-81.778168"
     inkscape:cy="59.09728"
     inkscape:window-x="65"
     inkscape:window-y="24"
     inkscape:window-maximized="1"
     inkscape:current-layer="Слой_1" /><g
     id="g1009"
     style="fill:#fbd800;fill-opacity:1"
     transform="matrix(5,0,0,5,-13.5,0)"><path
       d="m 7.2,40 c -0.6,0 -1,-0.4 -1,-1 V 17.6 c 0,-0.6 0.4,-1 1,-1 0.6,0 1,0.4 1,1 V 39 c 0,0.6 -0.5,1 -1,1 z"
       id="path1007"
       style="fill:#fbd800;fill-opacity:1"
       inkscape:connector-curvature="0" /></g><g
     id="g1013"
     style="fill:#fbd800;fill-opacity:1"
     transform="matrix(5,0,0,5,-13.5,0)"><path
       d="M 8.2,5.6 V 1 c 0,-0.6 -0.5,-1 -1,-1 -0.6,0 -1,0.4 -1,1 v 4.6 c -2,0.5 -3.5,2.3 -3.5,4.4 0,2.5 2,4.5 4.5,4.5 2.5,0 4.5,-2 4.5,-4.5 0,-2.1 -1.5,-3.9 -3.5,-4.4 z m -1,6.9 C 5.8,12.5 4.7,11.4 4.7,10 4.7,8.6 5.8,7.5 7.2,7.5 c 1.4,0 2.5,1.1 2.5,2.5 0,1.4 -1.1,2.5 -2.5,2.5 z"
       id="path1011"
       style="fill:#fbd800;fill-opacity:1"
       inkscape:connector-curvature="0" /></g><g
     id="g1017"
     style="fill:#fbd800;fill-opacity:1"
     transform="matrix(5,0,0,5,-13.5,0)"><path
       d="M 34.2,10.6 V 1 c 0,-0.6 -0.5,-1 -1,-1 -0.6,0 -1,0.4 -1,1 v 9.6 c -2,0.5 -3.5,2.3 -3.5,4.4 0,2.5 2,4.5 4.5,4.5 2.5,0 4.5,-2 4.5,-4.5 0,-2.1 -1.5,-3.9 -3.5,-4.4 z m -1,6.9 c -1.4,0 -2.5,-1.1 -2.5,-2.5 0,-1.4 1.1,-2.5 2.5,-2.5 1.4,0 2.5,1.1 2.5,2.5 0,1.4 -1.1,2.5 -2.5,2.5 z"
       id="path1015"
       style="fill:#fbd800;fill-opacity:1"
       inkscape:connector-curvature="0" /></g><g
     id="g1021"
     style="fill:#fbd800;fill-opacity:1"
     transform="matrix(5,0,0,5,-13.5,0)"><path
       d="m 33.2,40 c -0.6,0 -1,-0.4 -1,-1 V 22.7 c 0,-0.6 0.4,-1 1,-1 0.6,0 1,0.4 1,1 V 39 c 0,0.6 -0.5,1 -1,1 z"
       id="path1019"
       style="fill:#fbd800;fill-opacity:1"
       inkscape:connector-curvature="0" /></g><g
     id="g1025"
     style="fill:#fbd800;fill-opacity:1"
     transform="matrix(5,0,0,5,-13.5,0)"><path
       d="m 20.2,25.5 c -2.5,0 -4.5,2 -4.5,4.5 0,2.1 1.5,3.9 3.5,4.4 V 39 c 0,0.6 0.4,1 1,1 0.5,0 1,-0.4 1,-1 v -4.6 c 2,-0.5 3.5,-2.3 3.5,-4.4 0,-2.5 -2,-4.5 -4.5,-4.5 z m 0,7 c -1.4,0 -2.5,-1.1 -2.5,-2.5 0,-1.4 1.1,-2.5 2.5,-2.5 1.4,0 2.5,1.1 2.5,2.5 0,1.4 -1.1,2.5 -2.5,2.5 z"
       id="path1023"
       style="fill:#fbd800;fill-opacity:1"
       inkscape:connector-curvature="0" /></g><g
     id="g1029"
     style="fill:#fbd800;fill-opacity:1"
     transform="matrix(5,0,0,5,-13.5,0)"><path
       d="m 20.2,23.7 c -0.6,0 -1,-0.4 -1,-1 V 1 c 0,-0.6 0.4,-1 1,-1 0.6,0 1,0.4 1,1 v 21.7 c 0,0.5 -0.5,1 -1,1 z"
       id="path1027"
       style="fill:#fbd800;fill-opacity:1"
       inkscape:connector-curvature="0" /></g></svg>